<?xml version="1.0" encoding="utf-8"?>
<!-- Generator: Adobe Illustrator 26.0.1, SVG Export Plug-In . SVG Version: 6.00 Build 0)  -->
<svg version="1.1" id="Layer_1" xmlns="http://www.w3.org/2000/svg" xmlns:xlink="http://www.w3.org/1999/xlink" x="0px" y="0px"
	 viewBox="0 0 256.9590149 256.9590149" style="enable-background:new 0 0 256.9590149 256.9590149;" xml:space="preserve">
<style type="text/css">
	.st0{fill:#FFFFFF;}
	.st1{fill:#003244;}
	.st2{fill:#E96A29;}
	.st3{fill:#00A44F;}
	.st4{fill:#28AAE1;}
	.st5{clip-path:url(#SVGID_00000068637106023574928810000007663997217346242998_);}
	.st6{fill:#009567;}
	.st7{fill:#C53240;}
	.st8{fill:#CA542E;}
	.st9{fill:#1389CA;}
	.st10{fill:#0095C1;}
	.st11{fill:#CA4C43;}
	.st12{clip-path:url(#SVGID_00000173856154800249405620000000013470971481739697_);}
	.st13{fill:#139869;}
	.st14{fill:#C73141;}
	.st15{fill:#CD5530;}
	.st16{fill:#218ACB;}
	.st17{fill:#1E96C2;}
	.st18{fill:#CD4C44;}
	.st19{fill:#184890;}
	.st20{fill-rule:evenodd;clip-rule:evenodd;fill:#184890;}
	.st21{clip-path:url(#SVGID_00000047778965872217216540000016423221732337940144_);}
	.st22{fill:#144992;stroke:#144992;stroke-width:6;stroke-miterlimit:10;}
	.st23{fill:none;stroke:#A7C5EA;stroke-width:0.75;stroke-miterlimit:10;}
	.st24{clip-path:url(#SVGID_00000140706373288115890690000010959484970692835725_);}
	.st25{fill:#1B1B1B;}
	.st26{fill:#050505;}
	.st27{fill:url(#SVGID_00000044900142800453292760000008009479084574108066_);}
</style>
<circle class="st19" cx="128.4795074" cy="128.4795074" r="128.4795074"/>
<g>
	<path class="st0" d="M63.5293083,186.4782867l28.1308632-27.5869141
		c7.2773438,10.7519531,20.8535156,17.2695312,35.515625,17.2695312c9.8837891,0,19.5507812-3.5849609,19.5507812-10.7529297
		c0-9.0146484-17.9208984-16.9433594-35.0820312-24.546875c-22.15625-9.5576172-41.1640625-24.1118164-41.1640625-50.5048828
		c0-30.3027382,28.7822266-51.9165077,62.0175781-51.9165077c26.71875,0,47.5722656,12.5991211,54.4150391,29.8686562
		l-26.8271484,25.8496094c-5.2138672-9.2319336-18.6816406-13.2509766-27.0449219-13.2509766
		c-9.5576172,0-16.4003906,4.8876953-16.4003906,10.8613281c0,8.0371094,12.3818359,10.644043,31.2802734,18.5727539
		c27.3701172,11.5126953,45.5087891,28.2397461,45.5087891,54.0893555c0,33.34375-31.0634766,54.0888672-66.1445312,54.0888672
		C98.5029449,218.5193024,72.3271637,205.8112946,63.5293083,186.4782867z"/>
</g>
</svg>
