<?xml version="1.0" encoding="utf-8"?>
<!-- Generator: Adobe Illustrator 26.0.1, SVG Export Plug-In . SVG Version: 6.00 Build 0)  -->
<svg version="1.1" id="Layer_1" xmlns="http://www.w3.org/2000/svg" xmlns:xlink="http://www.w3.org/1999/xlink" x="0px" y="0px"
	 viewBox="0 0 1168.135498 258.8807068" style="enable-background:new 0 0 1168.135498 258.8807068;" xml:space="preserve">
<style type="text/css">
	.st0{fill:#1B1B1B;}
	.st1{fill:#FFFFFF;}
	.st2{fill:#003244;}
	.st3{fill:#E96A29;}
	.st4{fill:#00A44F;}
	.st5{fill:#28AAE1;}
	.st6{clip-path:url(#SVGID_00000152229964377367522840000002604277381822087358_);}
	.st7{fill:#009567;}
	.st8{fill:#C53240;}
	.st9{fill:#CA542E;}
	.st10{fill:#1389CA;}
	.st11{fill:#0095C1;}
	.st12{fill:#CA4C43;}
	.st13{clip-path:url(#SVGID_00000137112994650769681790000001764631273298832573_);}
	.st14{fill:#139869;}
	.st15{fill:#C73141;}
	.st16{fill:#CD5530;}
	.st17{fill:#218ACB;}
	.st18{fill:#1E96C2;}
	.st19{fill:#CD4C44;}
	.st20{fill:#184890;}
	.st21{fill-rule:evenodd;clip-rule:evenodd;fill:#184890;}
	.st22{clip-path:url(#SVGID_00000084527469347229526490000013828795719885993607_);}
	.st23{fill:#144992;stroke:#144992;stroke-width:6;stroke-miterlimit:10;}
	.st24{fill:none;stroke:#A7C5EA;stroke-width:0.75;stroke-miterlimit:10;}
	.st25{clip-path:url(#SVGID_00000131329514870959711830000000949941266373464961_);}
	.st26{fill:#050505;}
	.st27{fill:url(#SVGID_00000039099345158833226000000018135597579819678084_);}
	.st28{fill-rule:evenodd;clip-rule:evenodd;fill:#FFFFFF;}
	.st29{fill:#FFFFFF;stroke:#1B1B1B;stroke-width:4;stroke-miterlimit:10;}
</style>
<g>
	<path class="st1" d="M132.8689117,92.7727127c-0.0500488,2.2099609-2.8000488,3.0099487-2.8000488,3.0099487
		c-0.3199463,0-2.5199585-1.3399658-2.5199585-2.7399902c0-1.4500122,0.7999878-2.9099731,2.5199585-2.9099731
		C132.0688629,90.1326981,132.8689117,91.2627029,132.8689117,92.7727127z"/>
	<path class="st1" d="M138.89888,60.5827103c-18.1599731,0-32.9400024,14.7799683-32.9400024,32.9400024
		c0,6.8399658,2.0599976,13.3499756,5.960022,18.8999634c0.4299927,0.0599976,0.8599854,0.1199951,1.2799683,0.2000122
		c0.1700439,0.0300293,0.3400269,0.0599976,0.5100098,0.0900269c0.3200073,0.0599976,0.6300049,0.1199951,0.9400024,0.1900024
		c0.5700073,0.1199951,1.1400146,0.25,1.710022,0.4099731c0.2799683,0.0700073,0.5599976,0.1500244,0.8499756,0.2299805
		c0.8800049,0.2600098,1.75,0.5400391,2.6000366,0.8600464c0.2799683,0.0999756,0.5499878,0.1999512,0.8200073,0.3099976
		c1.6799927,0.6599731,3.2999878,1.4400024,4.8599854,2.3299561c1.039978,0.5900269,2.0499878,1.2300415,3.0299683,1.9200439
		c0.4899902,0.3499756,0.9800415,0.6999512,1.4500122,1.0699463c0.4799805,0.3700562,0.9400024,0.75,1.4000244,1.1400146
		c0.4499512,0.3800049,0.8899536,0.7800293,1.3299561,1.1799927l0.0700073,0.0700073
		c0.3800049,0.3699951,0.7700195,0.7399902,1.1400146,1.1199951c0.0700073,0.0700073,0.1400146,0.1400146,0.2000122,0.210022
		c0.3800049,0.4000244,0.75,0.7999878,1.1300049,1.2199707v0.0100098c0.3999634,0.4500122,0.789978,0.9100342,1.1699829,1.3900146
		c1.9000244,0.1400146,3.75,0.1099854,5.6500244-0.0599976c0.3399658-0.0300293,0.6900024-0.0700073,1.039978-0.1099854
		l0.1500244-0.0200195c8.6699829-1.1500244,16.6699829-5.8300171,21.9699707-12.8400269
		c4.3300171-5.75,6.6199951-12.5999756,6.6199951-19.8199463C171.8388824,75.3626785,157.0688629,60.5827103,138.89888,60.5827103z
		 M149.4989166,111.8826981h-6.8300171v-5.9799805l-13.8900146,6.4099731l-4.0899658-4.9500122l10.7099609-4.2000122
		l-5.4299927-2.8499756l-8.8300171,4.0900269l-3.8200073-5.3300171l7.2600098-1.9899902
		c-0.0999756-0.1100464-3.2299805-1.8300171-3.1199951-5.1700439c0-3.8800049,4.4200439-5.8099976,8.2900391-5.8699951
		c4.3099976-0.0999756,9.1499634,2.210022,9.039978,6.4100342c-0.1099854,3.7699585-3.710022,5.2199707-3.710022,5.2199707
		l7.5900269,3.8200073v-14.210022h6.8300171V111.8826981z M161.1289215,111.8826981h-6.7800293V87.2826614
		c0-3.0699463-0.3300171-7.5899658-3.6099854-7.5899658c-3.3400269,0-1.9899902,5.4899902-1.9899902,5.4899902h-6.6199951
		c0-0.4299927-1.6700439-10.1199951,8.5-10.1199951c5.8199463,0,10.5,5.9199829,10.5,12.2199707V111.8826981z"/>
	<path class="st1" d="M135.5688629,161.5926666c-0.4599609-1.4299927-0.8299561-2.8899536-1.1099854-4.3599854
		c-0.0599976-0.2999878-0.1099854-0.5899658-0.1599731-0.8900146c-0.0499878-0.289978-0.1000366-0.5899658-0.1400146-0.8899536
		c-0.0499878-0.2999878-0.0800171-0.6000366-0.1199951-0.9000244c-0.0499878-0.3800049-0.0900269-0.7600098-0.1199951-1.1400146
		c-0.0200195-0.2199707-0.039978-0.4400024-0.0499878-0.6599731c-0.0700073-0.9100342-0.1000366-1.8200073-0.1000366-2.7399902
		c0-0.9200439,0.0300293-1.8300171,0.1000366-2.7399902c0.0100098-0.2200317,0.0299683-0.4400024,0.0499878-0.6600342
		c0.0299683-0.3800049,0.0700073-0.7600098,0.1199951-1.1400146c0.039978-0.2999878,0.0700073-0.5999756,0.1199951-0.8999634
		c0.039978-0.2999878,0.0900269-0.6000366,0.1400146-0.8900146c0.0499878-0.2999878,0.0999756-0.5900269,0.1599731-0.8900146
		c0.4500122-2.3599854,1.1300049-4.6699829,2.0400391-6.9099731c-0.9400024-1.9700317-2.0800171-3.8599854-3.4000244-5.6199951
		c-5.4799805-7.2999954-13.7999878-12.0400467-22.8300171-13.0100174c-1.1799927-0.1199951-2.3800049-0.1799927-3.539978-0.1799927
		c-18.1600342,0-32.9400024,14.7799759-32.9400024,32.9400101c0,18.1599731,14.7799683,32.9400024,32.9400024,32.9400024
		c12.7600098,0,24.3300171-7.3500366,29.7700195-18.8099976c-0.1199951-0.2900391-0.2300415-0.5700073-0.3300171-0.8600464
		C135.9488678,162.7226715,135.7588654,162.162674,135.5688629,161.5926666z M120.2688751,165.492691
		c-3.1300049,2.7200317-7.3800049,4.0800171-12.7299805,4.0800171c-6,0-10.7299805-1.7600098-14.1599731-5.2800293
		c-3.4500122-3.5100098-5.1700439-8.3399658-5.1700439-14.4500122c0-6.0999756,1.7000122-10.9199829,5.1099854-14.4399414
		c3.4100342-3.5300293,8.0600586-5.2900391,13.9400024-5.2900391c5.4200439,0,9.6800537,1.3099976,12.8000488,3.9299927
		c3.0999756,2.6199951,4.8499756,6.3699951,5.2199707,11.2300415h-11.5100098
		c-0.1699829-1.9100342-0.789978-3.3500366-1.8499756-4.3300171c-1.0700073-0.9799805-2.5700073-1.460022-4.5100098-1.460022
		c-2.3599854,0-4.1199951,0.8599854-5.2999878,2.5700073c-1.1799927,1.7299805-1.7700195,4.3300171-1.7700195,7.7999878
		c0,3.4100342,0.6300049,5.9800415,1.8900146,7.7300415c1.25,1.7399902,3.0800171,2.6199951,5.5100098,2.6199951
		c1.8599854,0,3.3399658-0.5400391,4.4299927-1.6100464c1.0899658-1.0599976,1.7399902-2.5799561,1.9199829-4.5699463h11.4000244
		C125.14888,158.952713,123.4088898,162.7727203,120.2688751,165.492691z"/>
	<path class="st1" d="M171.7088776,117.0727005c-1.0299683,0-2.0899658,0.0499878-3.1699829,0.1499634
		c-0.1500244,0.1800537-0.289978,0.3600464-0.460022,0.5400391c-0.0299683,0.0599976-0.0799561,0.1199951-0.1499634,0.1799927
		c-0.3600464,0.4299927-0.7300415,0.8599854-1.1199951,1.2700195c-0.0100098,0.0299683-0.0400391,0.0499878-0.0700073,0.0799561
		c-0.4200439,0.4500122-0.8500366,0.9000244-1.2999878,1.3300171c-0.3900146,0.3900146-0.8000488,0.7700195-1.210022,1.1300049
		c-0.0999756,0.0999756-0.2000122,0.1900024-0.2999878,0.2600098c-0.3099976,0.2799683-0.6199951,0.539978-0.9299927,0.7799683
		c-0.1900024,0.1700439-0.3699951,0.3200073-0.5599976,0.460022c-0.4700317,0.3800049-0.9400024,0.7299805-1.4200439,1.0700073
		c-0.2999878,0.2199707-0.5999756,0.4299927-0.8999634,0.6199951c-2.4100342,1.6400146-4.9899902,2.9899902-7.710022,4.0200272
		c-0.2700195,0.1099854-0.539978,0.2099609-0.8200073,0.3099976c-0.2700195,0.0999756-0.5499878,0.1900024-0.8200073,0.2799683
		c-0.9500122,0.3200073-1.8999634,0.5900269-2.8699951,0.8300171c-0.1699829,0.039978-0.3399658,0.0800171-0.5100098,0.1199951
		c-0.8599854,0.2000122-1.7199707,0.3699951-2.5899658,0.5100098c-1.2999878,1.8299561-2.4000244,3.7799683-3.2800293,5.8200073
		c-1.8200073,4.1599731-2.75,8.5899658-2.75,13.1799927c0,4.5799561,0.9299927,9.0100098,2.7399902,13.1699829
		c5.2400513,12.0100098,17.1000366,19.7700195,30.2000122,19.7700195c18.1700439,0,32.9400024-14.7800293,32.9400024-32.9400024
		C204.64888,131.8526764,189.8789215,117.0727005,171.7088776,117.0727005z M187.858902,169.5827179h-11.9199829
		l-4.2600098-22.4400024l-4.1100464,22.4400024h-12.1199951l-9.0199585-37.4299927h11.7099609l4.0700073,24.1599731
		l4.7300415-24.1599731h9.9400024l4.5299683,24.1599731l3.9400024-24.1599731h11.4199829L187.858902,169.5827179z"/>
	<path class="st28" d="M147.5891113,4.1970558c-3.3024597,0.0562439,0.5136108,0.4966426-3.0048065-0.2111793
		c-10.2713776-2.0844669-24.529686,0.7720246-34.9942093,0.7545152
		c34.176033-5.8058391,73.1539993,0.9818773,101.6584244,20.2068863c0.6282349-0.3029728,3.181488,2.1239967,3.8956757,1.9603062
		c1.2283478,1.2169342,5.6572723,4.4108887,6.4786377,4.9035511c5.6036835,4.1179981-1.6262817-1.5607624-2.8875275-2.4121132
		c-4.3350067-3.357645-8.3468933-6.251543-13.3180847-9.3001137c-10.718689-6.6473722-26.5305939-11.7069197-37.7984467-14.7204704
		c-11.7878418-3.6088843-28.9575653-5.7222691-42.4645462-4.4281325C125.1849976,0.3241974,126.2759171,0.0888757,124.466568,0
		c-12.164566,0.786351-28.4365158,2.7071276-40.6307907,8.9602633c1.7276382-0.4939899-0.8314514,0.6828842-1.0012436,0.9142256
		c-18.9923439,7.9128571-36.8688316,19.8028355-49.2201653,33.4708595c1.3700104-1.7027016,1.0696907-0.3942375,0.9577332,0.0541191
		c9.3640518-10.4974136,22.248642-19.4022293,32.9705009-24.7002831c1.7626572-0.858778-1.7324142,0.1111603,0.2191391-0.9633064
		c6.6197815-2.4290934,16.0384827-5.9971209,20.8202591-8.3898678c-1.597641,0.623457-2.1239929,0.3650541-1.3997269-0.2891779
		c7.2464218-2.3330531,10.1164474-1.3371148,18.8692474-3.3199716
		C89.1354218,9.2252989,73.9416504,17.7873459,58.8752327,25.0311146c-0.4393387,0.5629673,0.3098717,0.8845119-1.181118,1.6644955
		C41.8461151,37.3251457,28.8474464,50.786499,20.434763,64.5773544c-0.1750984-0.2934189,0.1374264-1.1535263-0.7470856,0.2748489
		C13.6600466,76.2962112,8.5063162,83.4832077,4.3548923,97.8561325
		c-3.0578547,10.9871597-4.5838642,23.5077591-4.3270531,35.4064865c0.2775044,11.9183655,2.2858303,23.283844,4.8629603,32.357132
		c4.1896276,16.2173004,15.7259607,37.0587769,28.3240242,50.9881287
		c4.7319031,5.5357666,9.8575096,10.8104706,14.8870811,14.6857147
		c11.6525307,9.0268555,24.2633286,15.2439117,36.7494431,20.1230469
		c-2.2449799-1.9589691-12.3322372-5.5803223-16.0819931-7.5085297c2.0555496,0.4618835-2.8413696-2.461731-2.9803925-2.2537384
		c0.9959412,0.5757141,1.0325546,0.8317261,0.297142,0.7529297c-25.1833992-15.3227081-43.8059082-34.8323822-54.2088776-59.6387787
		C26.2559891,211.09758,46.158844,229.313385,68.0673676,241.2736664c1.2591171,0.6038361,0.261055,0.9585419,1.2612381,1.5294647
		c5.2099762,1.554657,9.7089462,4.9714661,15.5535126,6.7516327c-0.7624741-0.4618835-2.9851608-0.9277496-2.6943893-1.3946838
		c11.0524216,3.9675751,22.467247,7.2586212,34.5957336,8.7679291c-0.0726929,0.3218079-0.790596,0.2254944-0.6828842,0.6542358
		c11.9677048,2.7169189,27.3264999,0.6271667,41.1804886-1.331543c6.868103-0.7988281,16.5881958-2.0531769,20.674881-4.9966888
		c-2.0858002,0.7638092-3.3767395,0.8365021-3.6569061,0.0652618c6.7168884-3.6248016,16.9654388-6.6338348,26.7990723-12.2213287
		c7.1742706-4.0230255,14.1490173-9.1242218,19.9580383-13.9144897c11.70401-9.498291,20.4196625-23.0458679,27.1821747-34.4049835
		c1.6820068-2.9411163,4.0527344-4.736145,4.5132904-7.9558411c-1.593399,2.8992157-2.3818665,0.2268372-2.8376465-0.8205719
		c-3.4032745,13.9229736-16.8243103,30.7194214-29.5884552,41.238327c-1.1238098,0.8070526-1.3609924-0.0013275-2.7230377,1.2394867
		c-3.8113098,2.5983582-8.6875458,7.8314056-11.8048248,7.3371582
		c13.5298004-8.8430023,20.7019348-16.4600525,30.2718658-27.8053589c-0.1681976-1.3538361,2.1356659-4.5737915,4.714386-7.5098724
		c-1.6920776,2.4580078-5.8737488,8.7297211-1.6607819,3.171402c0.3767395-1.3195953,3.1146393-4.2962799,2.7952118-5.2449951
		c-1.8135986,1.7273865-4.7127991,7.1339417-6.4112549,7.5467529c-0.5820618-0.4621582-0.6213379-1.2272797-0.0631409-2.3176727
		c3.3157349-4.7276611,8.0460358-11.3368225,6.9885559-13.9144897c3.0865021-4.8780823,5.0502625-12.4593048,7.7404022-15.900528
		c-0.1029358,0.4409332-0.3862762,1.0704956-0.1729736,1.175293c3.5709534-12.6476746,5.9146118-27.0243225,4.3079529-38.4967194
		c0.541214,8.8480377,0.0344849,15.1629944-2.4338684,22.3547668c1.1349487,2.138855-1.2336426,6.8468781-1.8268585,9.4465485
		c0.3475342-0.9373016,0.5974579-2.779541,1.1232758-2.0133667c-2.2269287,7.7048645-5.6540833,19.3457336-11.3193054,24.4604645
		c0.3952942-0.7258606-0.2244568-0.7529297-0.5258331-0.9993896c3.4425354-4.9775696,4.9839325-9.9333954,5.8249359-14.9913483
		c-1.4007874,1.8618774-1.3524933,3.8641052-2.9135284,6.5033112c-1.4713593-0.0124664-1.9717102,1.884964-3.3056488,3.7556
		c-0.1246796,0.8327789,0.4812622,1.132309-0.2185974,2.3977814c-3.0371704,5.6909637-7.6443787,15.1327515-12.4187317,17.7350922
		c4.0675964-5.0677795,10.616272-14.2373657,12.1146851-19.1891937
		c-4.9706726,10.8858185-15.0828705,21.9467316-20.3809204,27.6403351c0.9216614-0.6393738,2.3335876-2.6750183,2.8737335-2.4211273
		c-14.0487213,13.1246948-32.0122223,25.9055481-51.9283447,30.0447693
		c-1.7005768,0.3531036-3.9391785,1.7109222-4.7563171,0.4210205c3.9291077-1.0137024,6.2839203-1.47612,8.6769257-2.0701294
		c0.9402313-0.3990173,0.1284027-1.0532532,1.7886658-1.3440094c20.0041962-7.4645081,36.2596893-19.0661011,51.4025269-35.4794617
		c2.1462708-4.5525513,8.9920959-12.5611877,9.0669098-16.9290924c-0.7364807,1.4806366-1.2814026,0.9274902-1.8995514,1.2543488
		c0.8537292-1.7942352,2.7007599-4.6220703,2.4513702-5.7618103
		c-13.5950623,28.9859619-37.3553925,46.2161713-59.9383087,53.4105835
		c8.4875031-4.0760651,20.8409576-8.3858795,24.5816956-14.5480194
		c-4.8576508,3.8099823-15.5933075,10.5459595-19.3372345,9.6280212c0.7577057-0.47435,2.8275757-0.8600922,2.682724-1.3922882
		c-4.8401489,1.4442902-15.402298,7.2732086-20.1654968,5.2073212c0.1565247,0.4247437-0.3533783,0.6735992-1.3413696,0.7993469
		c-2.1261139-1.4122009-5.3638458,1.0927734-8.422226,0.3056183c1.8544464-0.8489532,6.1682434-0.7566223,6.1157074-1.8557739
		c6.5380707-1.0951538,14.6594543-4.0622864,21.4235535-6.4229279
		c15.0621796-10.3292084,31.5898743-17.875946,41.5317535-36.4589386c-0.8563843,1.0450287-1.8454285,2.7493134-2.4184723,2.3436737
		c-0.7258606-0.3181,1.1874847-1.849411,0.8829193-2.3497772c-1.66185,2.0120392-2.6217041,3.6163177-3.9784546,5.3240509
		c2.205719-0.4953156-1.4957581,4.845993-3.150177,4.9162903c1.1959686-1.8395844,2.9936523-2.6811218,3.0238953-4.3840942
		c-4.5387573,4.6045685-5.9209747,8.1309357-11.2545776,11.6461639c0.0700378-0.7184296,2.6413269-2.1462708,2.5718231-2.874527
		c-7.0936127,6.3640289-21.0081024,15.4914398-29.629837,18.265152c-1.0410461-0.6985321,2.2311707-0.9747162,1.8953094-1.600296
		c-1.6448669,0.629303-4.2554321,2.172287-5.9650269,1.3403015c4.5371704-1.1800537,13.9378357-6.5192261,19.6216431-10.3843994
		c0.6070099,0.1491089-0.7428436,1.4785309,0.505661,0.8500214c0.45578-2.8779755,9.1618958-6.6728363,9.8097534-9.4147186
		c-2.3999023,0.1233673-7.7759552,6.1571045-9.3417664,4.0734253c6.0653076-4.2482605,14.5994873-12.3569031,20.081665-17.8300629
		c0.0795898-1.6843872,4.2999878-4.5761719,3.0652771-6.1409149c-2.8747864,3.4881744-2.7787476,4.1410828-4.9223785,5.678772
		c-0.1936646-0.3104095,0.1618347-0.8266754,0.0180359-1.151947c-3.3693085,5.5161438-10.8571625,11.6955261-13.1488342,15.0197296
		c-7.9818268,6.3048706-13.9908905,10.305603-23.6717072,14.2174683c-0.3019104-0.4202423-1.2851105,0.0098114-1.5780029-0.4138641
		c0.4037781-0.543335,1.6788177-0.9733887,2.7654877-1.4278564c-0.1607666,0.3151855-0.6144409,1.2503662,0.6913757,0.517334
		c11.5458832-6.2467651,27.2469025-17.151413,34.6392365-29.9015045c0.2005768-0.8648682-0.1358337-1.5031891,0.3571014-2.4741821
		c4.3689728-6.4364624,7.6947784-13.5855255,8.916748-19.8285675c-3.164505,3.4462433-2.8721466,6.4292908-6.4478607,11.8358459
		c-0.5332489-0.9524231,0.7603455-2.9732208,0.7778625-4.2800903c-1.8051147,3.2390594-0.8107605,3.5839539-2.2927246,6.7160797
		c-0.6807709-0.3647766,0.3172913-1.5981598,0.2737885-2.2821045c-3.7587891,5.3216553-8.6488037,12.4975128-14.9008789,18.3651581
		c-6.1300354,5.9411469-13.5372314,10.3252411-19.5722961,11.0903625c3.8537598-1.9740906,3.6102142-2.2523956,5.0752106-3.4191895
		c0.8229675,0.0875549,0.1230927,0.2931519,0.4855042,0.8662109c1.8751373-0.781311,0.45578-1.5488281,1.3158875-2.5752716
		c2.2173767-2.4397125,7.7006073-5.4949188,7.8078003-6.9216919c-0.014328,0.2053375-1.3392487,1.3562164-1.687851,1.0357208
		c-0.6770477-0.6096497,3.7810669-2.2818451,0.9317322-1.3784943c-2.5028381,2.66362-9.2855225,8.8342438-11.1734009,8.911972
		c-0.2042694,0.0233459,0.2042847-0.6186829,0.1087799-0.6409607c-9.5630341,5.4190369-18.6087189,9.0390625-23.9502869,9.6574707
		c-0.8961792-0.9954071,2.8100739-1.098877,1.2479858-1.6239014c-1.2978516,0.3759308-4.4321136,1.1495514-5.9830627,2.4163513
		c-0.2117157-1.3331299-0.3342743-0.1443176-0.8319855-0.1024017c-4.2665558,0.6804962-12.8018188-0.035553-17.524704,1.322525
		c-0.4716949-0.3846893-1.506897-0.4279327-1.984436-0.7988281c-4.2697601,0.876297-10.4528503-0.4693146-13.8370209-1.0755157
		c-0.2913055-0.5643005-0.2960815-1.2506256-1.350914-1.4822388c-0.6765137,0.8919373,1.3259735,0.8253479,0.1750946,1.2898865
		c-2.4083939-1.5204315-3.8341217-0.7529144-6.4393768-1.9528809c0.9789658-0.2735138,1.3997269,0.6985474,2.3367691,0.3387909
		c-0.3846817-0.68367-1.4729462-0.0960388-1.4649887-0.6247711c0.5963974-1.5644836,4.0129395-0.0467072,5.521965,0.2095795
		c6.5205612,0.9006958,10.9935303,1.4243927,14.7268372,0.5348511c-3.9105225,0.4459686-9.0302963-1.1904144-12.6208801-1.4562378
		c0.7630081-1.1201019,4.1737137-0.0050354,5.8207016-0.4671936c-1.1222229-0.5260925-4.8544769-0.52742-6.3369751-1.1373444
		c2.331459-0.1366272,6.4696198,1.1224823,8.3086929,0.3042908c-4.7096252-0.5998383-11.0932846-1.4020996-15.9615555-3.8036041
		c-0.2992554,1.2161407-6.2356262-1.4289093-8.4683914-2.5195618c0.4228897,0.1085052,0.9710007,0.3955688,1.1211548,0.1392822
		c-3.128952-0.873642-7.0665436-3.6075592-9.0249939-3.1581421c1.7382507,0.8725739,3.3337708,1.7594757,4.479866,2.6676025
		c-9.526947-4.3246613-21.7939148-11.3105621-30.2808838-21.0126038c2.0226517,2.848526,2.7856598,4.0585632,5.6636429,6.7839966
		c0.5300674,0.8070526-1.5769501,1.1336365-0.3289795,2.0847321c0.821907,0.4114838,1.1747513-0.8574524,1.9579239-0.5703888
		c2.9188385,1.9971771,7.0283432,7.2673798,8.3633347,6.8986053c1.9069824,2.4954224,7.8396301,4.1843262,10.5775375,6.6794739
		c-1.5822525-0.1477661-3.9407806-2.0388336-4.3992157-1.4281158c0.1294632-0.1390076-0.1475067-1.1495514-1.2140198-0.9720612
		c0.3862839,0.2623901,0.7401886,0.5298157,0.4234238,0.8317261l-1.9802017-1.1816559
		c0.1740341-0.266098,0.5900269-0.0493469,0.6887207-0.4560547c-0.9768372,0.0185699-1.1816559,0.2960815-3.1613235-1.3822174
		c-0.8160629,0.6393738,1.7286987,1.2766266,1.1147919,1.8984985c-0.6255798-0.4446411-0.8155365-0.1252289-1.2320557-0.1944733
		c-0.5990524-0.3586731-0.6303558-0.7109985-0.2663651-1.0670319c-6.32901-1.7695618-10.9017334-8.1296082-16.3403931-13.210907
		c-0.1108932,0.7996063,1.6952667,1.5305176,1.3922958,1.8456879c-0.1947327,1.065979-0.9879761-0.8479004-1.2973175-0.3151703
		c3.4934769,4.5042725,8.1675415,6.848999,11.2020493,10.9017334c-9.1380081-6.8792419-18.9620934-16.3173218-25.0942535-27.8252563
		c-6.2939911-11.3538055-8.3155823-24.5217438-5.8451004-34.4283295c0.2621155,1.3591309-0.5905609,2.9472198-0.0530624,3.361618
		c0.1639557,1.0826874,0.6345978,8.8318634,0.9524307,10.7600708c2.2025261-0.1886292-0.2366486-7.5507202,0.9832039-10.4191589
		c0.4388046,7.2572937,1.4920502,13.2207336,3.4685402,20.2241364c0.5555382,1.8815155,2.529377,5.7233276,1.1036491,4.2745209
		c1.4862137,2.7339172,2.2810555,3.6287842,3.8855934,4.9738617c-9.4224167-19.1077576-8.8865089-40.3880463-2.0544891-56.1169205
		c-1.5711098,2.105423-2.350563,6.0517654-4.0150566,6.9413223c0.4075012,0.4608307-1.5355606,5.4460907-2.7336578,7.5998001
		c1.0723419-5.1773376,2.9411201-9.3802338,4.4766808-14.7692871c-3.2998085,3.5582123-3.9513855,6.7691498-6.5529251,12.8498383
		c0.5879059-3.4820709,2.2057114-8.5779648,3.446785-12.959671c-1.6008224,2.1706924-1.7780457,5.7962875-3.2515221,6.6521454
		c0.4801941-1.5509415,1.5875587-4.5944748,0.7460251-4.7175751c-0.2536278,2.642395-2.1165695,8.2243195-2.8424301,9.4330292
		c0.5168037-1.2097702-0.0610199,2.8498611-0.5279503,2.7119064c-0.1443214-1.9950638,0.4027252-2.8519821-0.6361923-0.517334
		c0.1220398-1.0452881,0.4228897-5.1529388,1.0750008-3.0249634c-0.0127373-2.3189926-0.127346-4.0967712,1.6209869-6.1310959
		c1.3700104-7.2384644,6.5428429-16.121254,10.7245102-20.7971802c0.0392647,0.7775955-2.9437752,4.2901764-1.592865,3.7468414
		c-0.2143631-1.2665482,1.1938553-1.3233185,1.6676826-1.7175598c-0.2504463-0.3756638-0.8447189,0.1169968-0.5932121-0.4303131
		c0.894062-0.9147568,0.3952942-1.2365646,0.7460251-1.9292679c2.2354202-1.3785019,2.9443016-4.4270706,5.660984-5.6636353
		c1.9207764-3.4860535,11.5501251-13.4183807,14.1750107-11.5047607
		c-3.3125458,2.3768234-11.354866,10.2254791-14.0694199,14.7743225c1.5031891-2.105423,4.5950012-3.0764236,5.2434006-5.1391373
		c-0.7720261,0.77388-1.6565399,2.0849991-2.1935043,1.6339874c2.4826813-2.5837631,5.6254349-5.7665787,7.7595139-5.8169861
		c0,0.6579514-3.0753708,2.8413696-1.8295135,2.5972977c2.6848373-2.9042435,7.0267487-7.195488,9.9063187-7.8364487
		c-0.9301376,0.7895355-1.3036804,0.8739014-1.4416428,1.3023605c3.1602631-1.1962433,3.717926-3.8208618,6.8888016-4.9900436
		c-0.5995789-0.4533997,0.1713791-0.8510818-0.2414246-1.298645c-1.2103043,0.7011871-2.3686066,1.2763596-3.0668793,0.9585342
		c0.8898239-0.3082809,1.9982452-0.9832077,2.6063156-1.8395996c-0.6027603,0.5019531-2.0603256,0.4563217-1.3716049-0.0403214
		c0.52211-0.5114975,2.1759949-0.9046783,1.9791412-1.4047699c-0.4488831,0.2056122-0.8760223,0.3796463-0.9381027-0.0642014
		c0.7136612,0.0692444,1.5382156-0.6099243,1.6735153-1.1718292c-0.5804749,0.1615677-1.7175522,1.2421341-1.9037933,0.7282486
		c-0.4128113-0.5213165,2.11763-0.8550644,1.1063004-1.4267883c-2.5665131,1.4564972-4.0659943,1.5846405-5.9400787,1.9751663
		c5.5925369-3.7765579,13.465065-8.367321,20.2095413-11.0176735c0.5942688,0.1944656,1.6984558-0.1825256,1.8815079,0.4571152
		c1.6931534-2.0995903,4.3986893-1.2394867,6.8606796-1.8422508c0.0413818-0.8723068-2.5479507-0.5470467-0.7242737-1.3795624
		c0.759819,0.4584389,1.7838821,1.7233925,3.9535065,0.4308472c-0.9264297-0.4175835-1.6719208,0.7911263-2.1462784-0.0466919
		c0.4064407-0.7279854-0.3624039-0.7221489,0.2217941-1.0707512c0.8712463,0.1453819-0.4138718,1.3307457,1.836937,0.6271706
		c1.9149399-0.155201-0.7587585-0.5815392,1.1657333-0.7110062c3.5460052,0.8242874,10.4889297-0.7725563,13.1260147,0.0063667
		c1.7504578,0.5406837-2.0513,0.4669304,0.4494171,0.7391281c7.1822205,0.7529221,17.1501007-0.4435844,23.3639679,0.7022514
		c-0.7147217-0.7611504-1.8332367,0.1233635-1.9860382-0.8439217c2.3075867-0.5300713,4.8677368,2.6243515,3.7662048,0.4648056
		c18.4675751,3.9476738,34.0486755,15.8129768,43.6446075,25.2422905
		c-4.5700684-6.0064011-10.8587646-10.9906082-17.8902893-15.314209c0.0413971-0.5961342-2.0009003-1.4315643-0.6743927-1.4809113
		c-6.5386047-3.404335-12.1656189-5.6790237-18.98172-8.5201263c6.1692963,1.5772095,11.7851715,4.1819305,15.0229034,4.9109764
		c0.5926819-0.493721-0.2976685-0.8547974,0.0933838-1.3328705c0.577301,0.2722015,0.8235016,1.5536003,1.1726379,0.5581932
		c1.4607391,0.143795-1.1768799-1.1991577-0.6950989-1.7029648c1.2172089,0.1812019,2.1118011,1.7939644,3.3794098,1.0535088
		c-3.9906616-1.9343071-8.6939087-4.995079-12.2537079-6.4083366c-3.6553192-1.3846016-8.1670227-1.7310867-10.1647339-3.5929642
		c7.2671204,1.477459,12.7047272,4.1339149,19.2136078,7.37854c6.6081085,3.3385429,14.9666748,7.9064903,19.3340454,13.2867889
		c-0.4350891,0.1575851-1.6554718-1.2591171-2.0359192-0.9030838c1.3625946,0.783699,1.531311,1.4957657,2.136734,2.2486877
		c-0.3395844-1.4082184,2.7241058,0.0281219,2.8174896,1.3206635c-0.8033295-0.3066864-1.7727356-0.9818802-2.2890167-0.5788879
		c1.0139923,0.8760223,1.4713593,0.1172638,2.637619,1.5424576c2.5935822,3.4550095,8.3230133,8.277916,12.8177338,15.1677704
		c-0.2637024,0.7083511,1.1031342,3.4966583,2.3054657,4.1262207c-0.3889313-0.807045-1.8305664-2.1067505-1.5016022-2.5922546
		c0.9789581,0.5974579,0.6961517,1.6607819,1.6554871,1.9626923c-0.5592651-1.2198486,0.7730865-0.3289719,1.039444-0.2191315
		c-0.2308197-0.5940094-2.0704041-3.2600174-0.2058716-2.0011673
		c-9.2574005-12.5468597-20.7406769-26.7075462-39.0687103-34.8570518c0.2318726-0.2881165,0.8479004-0.103466,1.11586-0.3411751
		c-11.3957214-5.4917259-20.3273315-6.482357-27.555191-9.7450218c6.1708984,1.9345703,20.7125549,3.1997871,27.7011108,8.1861153
		c8.2784424,3.8086548,17.9125671,10.1148491,26.1469574,18.1412582
		c8.3415833,7.9369965,15.1746674,17.3848801,20.2572937,25.7845612c-0.963562-3.6301041-6.2674561-11.1434174-9.0966187-16.0130081
		c0.5656128,0.5977173,1.2235565,1.9924011,1.5079651,1.1447678c-3.9158325-5.0985489-9.030304-10.8993454-14.3108521-16.027607
		c1.5827942,0.4648094-0.1453705-0.9227142,1.4140625-1.0765877c2.0751801,1.6459236,6.1523132,4.6300278,9.3820953,8.1343842
		c2.7495728,2.7819366,5.694931,7.9372635,6.7195282,7.5294952c-1.6766968-2.4816208-5.9188538-7.7069855-11.4355164-12.8453293
		c-5.5012817-5.1574402-12.2903137-10.0984001-17.7056427-13.4422493c-2.2322388-1.0139771-9.911087-5.2365036-14.186676-6.9983635
		c5.8201599,1.1840363,14.8202209,6.7052078,19.4635162,9.4194984c-1.3031616-0.7972298-2.4280396-1.6162109-2.5957031-2.2720337
		c1.6533508,0.802269,1.7950287,1.5281296,3.133728,2.331459c0.2711334-1.1116104,1.9069824,0.0228157,3.3422546,1.1137314
		c-0.3746033,0.012207-1.4214783,0.0933876-0.019104,0.9030838c0.8680725,0.5470505-0.2048035-0.9648972,0.9481964-0.5300713
		c-0.9991302-1.324379-4.6623993-3.7800026-5.7947083-3.6786575c-2.9198914-3.2494011-6.6839752-4.4668655-9.5640869-6.0042839
		c-0.0243988-0.0151215-0.5502319-0.8038597-0.6797028-0.8701859c-13.5144043-7.0363007-27.376358-9.9519577-47.2585297-12.5025558
		c11.1643829,0.5300713,28.4588013,2.3081131,42.5255737,8.4328461c-1.1949158-1.1705055-5.1908722-1.9775505-6.3465271-3.0111618
		c5.5867004,1.7459412,12.6797791,4.6870651,16.1239166,8.0173836c-1.8544464-0.9847946-3.681839-1.9690628-4.0824432-1.8571053
		c3.9243317,2.5187645,11.0264282,6.3852577,11.3766174,6.216526c1.8799286,1.5894165,1.8862915,1.5684547,3.0541382,2.6476974
		c5.6965332,5.0086136,14.4493408,11.7671432,20.5432892,19.6794739c2.62117,3.3714371,5.0826263,6.6993713,7.0691986,9.7513885
		c3.9041748,5.9350357,5.9522858,11.9342804,8.9639893,15.84375c-2.2577209-5.2834625-4.0283356-8.7283859-5.6206665-13.1862335
		c2.2662048,2.4187469,6.6882324,11.6573105,7.5042877,14.0696869c-0.5714569-3.7677994-2.5245972-8.4816589-4.1264801-12.4813309
		c2.1351471,1.3405609,3.1751251,7.1782379,5.3702087,9.6744537c-0.7163086-2.5726242-5.1754761-9.9580612-4.209259-11.5880661
		c0.8463135,1.7088013,2.3861237,3.0766907,2.4662476,4.7425079c1.9541931,0.1538773,3.5003662,3.7802734,4.749939,7.9051666
		c1.9218292,0.4117432,4.5382233,10.4544373,6.0976715,14.8005905c-0.3199615,0.0960388-0.567749-0.1406097-0.8118286-0.3841553
		c0.6489258,6.7800217,1.2654877,9.8755493,0.9985962,13.7600784c0.4786072,0.6322174,0.8372803,1.642746,1.3742523,2.1168365
		c-0.4860229,0.6778412-0.7338104,5.0860748,0.1517487,5.540802c0.4128113-3.1135712,0.7497406-8.1651535-0.1814575-13.3743362
		c0.3931732,0.2350616,0.7152557,0.7351532,1.1094818,0.9837341c0.7465668-9.9376297-1.7960815-24.3564529-8.2715454-36.6910706
		c-0.0212097-2.0369797,0.6738739-2.2980347-0.2483215-4.529747c7.4931641,12.3014603,14.8494263,33.5191422,15.3890381,48.2048569
		c-0.0557251-22.0451508-7.1599426-45.6677856-20.9131165-64.5415344c-1.2760925-1.8886719-5.1494904-4.7929192-4.9308777-6.8025703
		c0.4854889,0.51017,1.0718079,1.322258,1.3429413,1.2026062c-3.9476624-5.1059761-8.0226898-8.3208885-10.5727539-12.2669716
		c1.1609497,1.230732,4.1434631,4.6881294,5.6217194,5.3646469c-1.554657-1.8838997-3.4637604-3.458725-5.3065491-5.7429657
		c9.5518951,6.4192162,16.986145,18.7036972,24.2866821,29.4343071c-0.7651215-0.3536453-0.5141449,1.4551773,0.1867828,1.3357925
		c-0.7486877-1.6079865,0.7916565,0.6802292,1.0166321,0.8290634c6.8410492,14.5514755,12.4760284,30.0110703,12.2648468,46.0585785
		c2.1722717-13.4945221-3.5635376-35.7691574-13.246994-52.0726776c-2.2471008-6.2335052-8.3288422-14.938282-15.3964539-22.1425209
		c-7.0007629-7.315136-14.8786011-13.0323639-19.0496521-16.4144154
		c-11.3506165-9.3826218-27.4140472-15.300684-41.9408417-21.3208847c-1.134964-0.188364-1.2193298,0.4138689-3.0212402-0.2769737
		c-5.363327-2.4879894-10.4852142-2.5357437-18.6729279-4.6167617c0.3417053-0.8208404,3.2297668,0.7611475,3.0111694,0.1055894
		C153.6300049,5.0484056,150.1062775,4.0962415,147.5891113,4.1970558L147.5891113,4.1970558z M177.3330231,53.8570862
		c-0.8712463,0.9890442,1.3280945,1.576416,0.3608093,2.5747452c-1.8311005-0.6616592-5.5447845-2.8413696-3.6038513-3.9280434
		c-1.5673981-0.4398689-2.2783966-0.8943253-2.5394592,0.6677628c1.2506409,0.2255058,0.5799561-0.1859741,0.7295837-0.7932472
		c2.0932159,0.3756638-0.0886078,1.4771919,1.618866,1.9268761c-0.8834534,0.8476372-1.4114075-1.2132187-2.5861511-0.4263382
		c0.0440369-0.6345978-1.8974304-2.7156143,0.3040314-2.2730942c-0.970993-0.936512-4.3286438-1.4527855-5.3495178-2.0295486
		c4.3848877-0.004776,8.7013245,2.9448357,12.7720947,4.7486153
		C178.419693,54.8201294,178.3369141,54.3051796,177.3330231,53.8570862L177.3330231,53.8570862z M241.2444763,57.3166084
		c-1.6899719-0.5183983-5.332016-5.7740021-7.0883026-7.6884117
		C236.7428436,50.6013184,239.8537598,54.8058014,241.2444763,57.3166084L241.2444763,57.3166084z M169.0344238,52.5311165
		c-0.8404846,0.1862411-1.070755-0.3735428-2.5431824-0.5324593c0.4961243-0.680233,1.5042572-0.0233459,1.8629456-0.2032204
		C168.7829132,51.9946785,168.4884338,52.3570786,169.0344238,52.5311165L169.0344238,52.5311165z M163.7299957,32.125782
		c-2.5309601,0.6722717-7.3334351-1.5329056-10.9457703-1.7570858
		C155.9073486,29.4324512,159.871994,31.2014751,163.7299957,32.125782L163.7299957,32.125782z M138.6994171,32.0589256
		c-0.3613434,0.2000389-1.4798431,0.2552223-2.4593353-0.0477524
		C128.8084717,32.3932076,136.0909729,31.1818428,138.6994171,32.0589256L138.6994171,32.0589256z M132.388443,48.1138611
		c-6.4802322,0.7712288-14.9889526,0.9487152-23.259964,2.0698738
		C118.8103561,47.8130074,123.4287109,48.2109604,132.388443,48.1138611L132.388443,48.1138611z M110.6115036,25.9612579
		c8.9873276-1.981266,13.5536804-1.2171993,19.9373398-0.0665913c-3.4425354,1.8791256-7.8640366,0.3509941-13.3202057,1.637701
		c-0.3480759-0.4648056-2.4227295,0.3401165-1.1317749-0.5703964c-7.6369476,1.6952705-13.5998383,2.4097252-21.3561707,4.788147
		c2.661499-1.5933971,8.449295-3.042469,11.5198822-3.5144386c-3.1061401-0.1562614-8.7416534,1.9494286-12.7498169,3.1679554
		c3.5449448-2.079958,12.6219406-4.9987946,16.7781448-4.3557053
		C110.2655563,26.0376644,111.75177,27.0134392,110.6115036,25.9612579L110.6115036,25.9612579z M119.5961761,49.6833801
		c-1.5180511,0.8144722-3.3465042,0.5300674-4.6289673,0.8813286
		C115.2457809,49.5199547,118.1465759,49.8608627,119.5961761,49.6833801L119.5961761,49.6833801z M59.6790924,51.953289
		c15.6983719-12.3746796,33.1562119-19.5208168,52.1968384-22.180191
		c-8.2174225,5.7830238-21.5004959,5.2465858-32.1326828,13.0596886c-1.4909897,0.0700378,0.7072906-0.7799835,0.4605637-1.3713417
		c-6.2812576,4.0376129-10.3594589,7.7539444-15.361969,9.529335c-4.8878975,4.6475372-8.2874603,6.5523949-11.8780403,9.4086227
		C55.5711784,56.8151894,60.5561752,54.5245857,59.6790924,51.953289L59.6790924,51.953289z M115.3365097,47.9323959
		c-2.0401611,0.0124664-6.9673233,2.4598656-9.1194458,1.5342331c2.179184-0.2809563,2.16539-1.2036705,4.9908371-1.8926544
		C110.8959122,49.1782455,115.2378159,46.6634598,115.3365097,47.9323959L115.3365097,47.9323959z M106.1008682,25.1823349
		c-1.9680023,0.2764435-8.5299454,2.075182-11.5262527,2.6519451c2.5781937-1.6188641,7.6088181-2.0295486,10.8385925-3.246748
		C105.4487534,24.9446259,105.4864273,25.2995987,106.1008682,25.1823349L106.1008682,25.1823349z M97.0530548,5.1160574
		c0.9057312,0.7826366-3.9588165,2.2375455-3.5863342,1.0622635C94.6552658,6.3136244,94.9221573,5.4636011,97.0530548,5.1160574
		L97.0530548,5.1160574z M105.8652802,49.8377838c-1.2103043,0.651577-1.5546646,1.4018478-3.5338058,1.9404068
		c0.5746384,0.1896896,1.4899292,0.0148582,1.6055984,0.7502708c-2.8387146,1.0277748-4.5700684,1.3381767-7.933548,2.2502823
		c0.6563492-1.0354691,4.3355408-1.6268234,5.0969543-2.550869c-1.5435181-0.1689949-5.7034302,1.3196068-9.1571198,3.0395508
		C95.9849548,52.5014,101.1933365,50.6557045,105.8652802,49.8377838L105.8652802,49.8377838z M81.6852493,67.7429199
		c0.1326523,1.1705093-1.2187881,1.3477325-1.9276733,2.3150177c0.3650513-1.4660568-0.9412918,0.0334244-2.39991,0.8871613
		c0.2626495,0.4844437,0.7147217,0.4114838,1.4023743-0.1650162c-2.5049667,2.654068-8.3972931,6.0286942-10.1790543,9.4505386
		c-1.8125305,0.0209579-3.4945374,2.9236145-5.0375252,4.2124481c2.0767708-4.2607346,7.5966225-8.4251556,11.1049538-12.2754669
		c0.4335022,0.3547134-0.7433701,0.9978027-0.4854965,1.396019C76.8440399,71.7425919,78.2511978,68.7988205,81.6852493,67.7429199
		L81.6852493,67.7429199z M44.0380287,70.134346c1.2617683-1.7199478,2.6996994-3.2759323,4.0553856-4.9099197
		C47.5150604,67.4200516,45.3035126,69.8669205,44.0380287,70.134346L44.0380287,70.134346z M50.0290489,64.9015503
		c-1.4432373,1.3074036-0.9895706,0.9463272-2.5861511,2.6010132C47.2465744,67.1539536,49.855011,63.8212471,50.0290489,64.9015503
		L50.0290489,64.9015503z M96.5824127,197.404892c0.507782-0.9067993,1.1779327,0.8712463,1.9335098,0.3698273
		c0.3974152,0.3695679,0.4345627,0.7958984,0.3029709,1.2455902c-1.2065887-0.2698212-0.7985535-0.3586884-2.0932236-0.9967346
		C96.9012985,197.7855988,96.8312607,197.5847626,96.5824127,197.404892L96.5824127,197.404892z M99.1701508,199.1890411
		c0.2982025-0.4210358,0.9656982-0.3178406,1.4405823-0.4780731c1.4671097,2.2067719,8.3771362,3.3403931,12.9015732,5.1736298
		c-0.4892197,0.7505341-2.3839951,0.0124664-2.1892624,0.7160339c-1.9388199-1.1779327-4.3127289-1.4737396-7.0867081-2.3041382
		c0.2366486-0.2621155,0.7752075-0.1342316,0.9725876-0.4398651
		C102.8259964,201.616272,100.4780807,200.6627808,99.1701508,199.1890411L99.1701508,199.1890411z M154.9745483,212.0627441
		c0.574646-0.7900696,3.9466095-0.6128387,3.4584503-1.7610626c3.9317627-0.1565247,6.8447571-1.2235718,11.2938538-2.5368042
		c-3.0435333,2.8620605-6.9662628,2.9273224-11.7045288,4.6671753
		C155.7985687,212.1030731,157.4237976,211.5918427,154.9745483,212.0627441L154.9745483,212.0627441z M160.7283783,236.1122437
		c0.6446838-0.5717163,2.5553894-1.4291687,3.4229126-1.2418671c-0.1092987,0.3584137-0.8033295,0.5754395-0.8510742,0.9487152
		C162.101059,236.1777802,162.1132507,235.6047363,160.7283783,236.1122437L160.7283783,236.1122437z M166.1399841,234.3774414
		c1.4527893-0.937561,3.4823456-2.1672363,5.7304993-2.3768158
		C171.1769867,233.0750885,168.2395782,233.6667023,166.1399841,234.3774414L166.1399841,234.3774414z M170.1141968,207.6253357
		c0.1485596-0.4114838,0.6796875-0.7428436,1.3917542-1.0349426c-0.7651215,0.9070587,1.1482239,0.0198975,0.8940735,1.263092
		C171.1546936,208.3610077,171.3950653,207.059967,170.1141968,207.6253357L170.1141968,207.6253357z M198.7369385,204.7054291
		c-0.1671295-0.970993,2.8864746-2.649292,3.8802948-3.2751312
		C202.3487549,202.3999634,199.9239044,203.6986084,198.7369385,204.7054291L198.7369385,204.7054291z M209.6073761,201.9587708
		c-0.4494171,0.3438263-0.588974-0.0798492-0.8293304-0.251236c0.7099457-0.6468048,1.4586182-1.2482452,2.139389-1.9271393
		C211.6103973,200.2303467,209.4115753,201.4069519,209.6073761,201.9587708L209.6073761,201.9587708z"/>
</g>
<g>
	<path class="st1" d="M289.2712097,99.6068573c0-13.6455078,6.7236328-20.46875,20.1708984-20.46875
		c13.4794922,0,20.2197266,6.8232422,20.2197266,20.46875v13.1152344h-14.0595703V99.6068573
		c0-4.3720703-2.0371094-6.5742188-6.1103516-6.6083984h-0.0996094c-4.0410156,0-6.0615234,2.203125-6.0615234,6.6083984v8.8427734
		c0,4.3398438,4.3886719,9.6552734,13.1660156,15.9482422c8.7763672,6.2597656,13.1650391,13.7617188,13.1650391,22.5048828
		v12.3212891c0,13.6796875-6.7236328,20.5185547-20.1699219,20.5185547
		c-13.4814453-0.0332031-20.2207031-6.8720703-20.2207031-20.5185547v-13.1162109H303.33078v13.1162109
		c0,4.4052734,2.0537109,6.6074219,6.1611328,6.6074219c4.0732422,0,6.1103516-2.2021484,6.1103516-6.6074219v-11.1289062
		c0-4.7021484-4.3886719-10.2001953-13.1650391-16.4941406c-8.7773438-6.2597656-13.1660156-13.8769531-13.1660156-22.8535156
		V99.6068573z"/>
	<path class="st1" d="M341.5866394,80.6781464h14.0595703v41.78125h12.2714844v-41.78125h14.0595703v97.4746094h-14.0595703
		v-41.7822266h-12.2714844v41.7822266h-14.0595703V80.6781464z"/>
	<path class="st1" d="M394.8942566,80.6781464h20.46875c12.4863281,0.0332031,18.7294922,6.8730469,18.7294922,20.5185547
		v14.6552734c0,8.5791016-3.6933594,14.2265625-11.0791016,16.9414062l15.7988281,45.359375h-15.4013672l-12.6689453-42.875
		l-1.7880859,0.2480469v42.6269531h-14.0595703V80.6781464z M408.9538269,94.5384979v27.9208984h3.2294922
		c1.953125,0,3.2949219-0.1318359,4.0234375-0.3964844c2.5507812-1.0263672,3.8261719-3.0966797,3.8261719-6.2109375V101.196701
		c0-4.4384766-2.0371094-6.6582031-6.1113281-6.6582031H408.9538269z"/>
	<path class="st1" d="M446.7614441,80.6781464h36.4658203v13.8603516h-22.40625v27.9208984h19.2763672v13.9111328h-19.2763672
		v27.9208984h22.40625v13.8613281h-36.4658203V80.6781464z"/>
	<path class="st1" d="M493.6608582,80.6781464h36.4657898v13.8603516h-22.4062195v27.9208984h19.2763367v13.9111328h-19.2763367
		v27.9208984h22.4062195v13.8613281h-36.4657898V80.6781464z"/>
	<path class="st1" d="M605.1950073,159.2240448c0,13.6464844-6.7402344,20.4853516-20.2197266,20.5185547
		c-13.4472656,0-20.1708984-6.8388672-20.1708984-20.5185547V99.6068573c0-13.6455078,6.7236328-20.46875,20.1708984-20.46875
		c13.4794922,0,20.2197266,6.8232422,20.2197266,20.46875v13.1152344H591.135437V99.6068573
		c0-4.3720703-2.0371094-6.5742188-6.1103516-6.6083984h-0.0996094c-4.0410156,0-6.0615234,2.203125-6.0615234,6.6083984v59.6171875
		c0,4.4052734,2.0371094,6.6074219,6.1113281,6.6074219c4.1064453,0,6.1601562-2.2021484,6.1601562-6.6074219v-13.1162109
		h14.0595703V159.2240448z"/>
	<path class="st1" d="M656.0192261,159.2240448c0,13.6464844-6.7402344,20.4853516-20.2197266,20.5185547
		c-13.4472656,0-20.1708984-6.8388672-20.1708984-20.5185547V99.6068573c0-13.6455078,6.7236328-20.46875,20.1708984-20.46875
		c13.4794922,0,20.2197266,6.8232422,20.2197266,20.46875V159.2240448z M641.9596558,99.6068573
		c0-4.3720703-2.0371094-6.5742188-6.1103516-6.6083984h-0.0996094c-4.0410156,0-6.0615234,2.203125-6.0615234,6.6083984v59.6171875
		c0,4.4052734,2.0371094,6.6074219,6.1113281,6.6074219c4.1064453,0,6.1601562-2.2021484,6.1601562-6.6074219V99.6068573z"/>
	<path class="st1" d="M667.9430542,178.1527557V80.6781464h14.0595703v83.6132812h22.40625v13.8613281H667.9430542z"/>
	<path class="st1" d="M752.2516479,159.2240448c0,13.6464844-6.7402344,20.4853516-20.2197266,20.5185547
		c-13.4472656,0-20.1708984-6.8388672-20.1708984-20.5185547V99.6068573c0-13.6455078,6.7236328-20.46875,20.1708984-20.46875
		c13.4794922,0,20.2197266,6.8232422,20.2197266,20.46875V159.2240448z M738.1920776,99.6068573
		c0-4.3720703-2.0371094-6.5742188-6.1103516-6.6083984h-0.0996094c-4.0410156,0-6.0615234,2.203125-6.0615234,6.6083984v59.6171875
		c0,4.4052734,2.0371094,6.6074219,6.1113281,6.6074219c4.1064453,0,6.1601562-2.2021484,6.1601562-6.6074219V99.6068573z"/>
	<path class="st1" d="M804.0700073,159.2240448c0,13.6464844-6.7402344,20.4853516-20.2197266,20.5185547
		c-13.4472656,0-20.1708984-6.8388672-20.1708984-20.5185547V80.6781464h14.0595703v78.5458984
		c0,4.4052734,2.0371094,6.6074219,6.1113281,6.6074219c4.1064453,0,6.1601562-2.2021484,6.1601562-6.6074219V80.6781464h14.0595703
		V159.2240448z"/>
	<path class="st1" d="M816.4909058,80.6781464h20.46875c12.4863281,0.0332031,18.7294922,6.8730469,18.7294922,20.5185547
		v14.6552734c0,8.5791016-3.6933594,14.2265625-11.0791016,16.9414062l15.7988281,45.359375h-15.4013672l-12.6689453-42.875
		l-1.7880859,0.2480469v42.6269531h-14.0595703V80.6781464z M830.5504761,94.5384979v27.9208984h3.2294922
		c1.953125,0,3.2949219-0.1318359,4.0234375-0.3964844c2.5507812-1.0263672,3.8261719-3.0966797,3.8261719-6.2109375V101.196701
		c0-4.4384766-2.0371094-6.6582031-6.1113281-6.6582031H830.5504761z"/>
	<path class="st1" d="M947.0534058,155.7963104l9.9365234-75.1181641h14.2080078l-4.5703125,34.578125l-9.8867188,62.8964844
		h-19.2763672l-7.3027344-50.3271484l-7.2539062,50.3271484h-19.2763672l-9.9365234-62.9960938l-4.5703125-34.4785156h14.1591797
		l9.9365234,75.1181641l9.9355469-75.1181641h13.9609375L947.0534058,155.7963104z"/>
	<path class="st1" d="M1019.041687,159.2240448c0,13.6464844-6.7402344,20.4853516-20.2197266,20.5185547
		c-13.4472656,0-20.1708984-6.8388672-20.1708984-20.5185547V99.6068573c0-13.6455078,6.7236328-20.46875,20.1708984-20.46875
		c13.4794922,0,20.2197266,6.8232422,20.2197266,20.46875V159.2240448z M1004.9821167,99.6068573
		c0-4.3720703-2.0371094-6.5742188-6.1103516-6.6083984h-0.0996094c-4.0410156,0-6.0615234,2.203125-6.0615234,6.6083984v59.6171875
		c0,4.4052734,2.0371094,6.6074219,6.1113281,6.6074219c4.1064453,0,6.1601562-2.2021484,6.1601562-6.6074219V99.6068573z"/>
	<path class="st1" d="M1030.9655762,80.6781464h20.46875c12.4863281,0.0332031,18.7294922,6.8730469,18.7294922,20.5185547
		v14.6552734c0,8.5791016-3.6933594,14.2265625-11.0791016,16.9414062l15.7988281,45.359375h-15.4013672l-12.6689453-42.875
		l-1.7880859,0.2480469v42.6269531h-14.0595703V80.6781464z M1045.0251465,94.5384979v27.9208984h3.2294922
		c1.953125,0,3.2949219-0.1318359,4.0234375-0.3964844c2.5507812-1.0263672,3.8261719-3.0966797,3.8261719-6.2109375V101.196701
		c0-4.4384766-2.0371094-6.6582031-6.1113281-6.6582031H1045.0251465z"/>
	<path class="st1" d="M1082.8337402,178.1527557V80.6781464h14.0595703v83.6132812h22.40625v13.8613281H1082.8337402z"/>
	<path class="st1" d="M1127.744873,80.6781464h21.6611328c12.4863281,0.0332031,18.7294922,6.8730469,18.7294922,20.5185547
		v56.4873047c0,13.6123047-6.5419922,20.4365234-19.6240234,20.46875h-20.7666016V80.6781464z M1141.8044434,94.5384979v69.7529297
		h6.1601562c4.0742188,0,6.1113281-2.2021484,6.1113281-6.6074219V101.196701c0-4.4384766-2.0371094-6.6582031-6.1113281-6.6582031
		H1141.8044434z"/>
</g>
</svg>
