<?xml version="1.0" encoding="utf-8"?>
<!-- Generator: Adobe Illustrator 26.0.1, SVG Export Plug-In . SVG Version: 6.00 Build 0)  -->
<svg version="1.1" id="Layer_1" xmlns="http://www.w3.org/2000/svg" xmlns:xlink="http://www.w3.org/1999/xlink" x="0px" y="0px"
	 viewBox="0 0 256.9590149 256.9590149" style="enable-background:new 0 0 256.9590149 256.9590149;" xml:space="preserve">
<style type="text/css">
	.st0{fill:#FFFFFF;}
	.st1{fill:#003244;}
	.st2{fill:#E96A29;}
	.st3{fill:#00A44F;}
	.st4{fill:#28AAE1;}
	.st5{clip-path:url(#SVGID_00000091700645239994267090000010906252586188151181_);}
	.st6{fill:#009567;}
	.st7{fill:#C53240;}
	.st8{fill:#CA542E;}
	.st9{fill:#1389CA;}
	.st10{fill:#0095C1;}
	.st11{fill:#CA4C43;}
	.st12{clip-path:url(#SVGID_00000005980882243931493800000013072331671847518601_);}
	.st13{fill:#139869;}
	.st14{fill:#C73141;}
	.st15{fill:#CD5530;}
	.st16{fill:#218ACB;}
	.st17{fill:#1E96C2;}
	.st18{fill:#CD4C44;}
	.st19{fill:#184890;}
	.st20{fill-rule:evenodd;clip-rule:evenodd;fill:#184890;}
	.st21{clip-path:url(#SVGID_00000157291652770936959970000015382188955923312547_);}
	.st22{fill:#144992;stroke:#144992;stroke-width:6;stroke-miterlimit:10;}
	.st23{fill:none;stroke:#A7C5EA;stroke-width:0.75;stroke-miterlimit:10;}
</style>
<circle class="st19" cx="128.4795074" cy="128.4795074" r="128.4795074"/>
<g>
	<g>
		<g>
			<path class="st0" d="M127.2594757,96.5045013v48.7399902l-18.1999512-9.6699829l-0.1800537-0.0100098
				c7.0400391-4.710022,11.460022-11.5,11.460022-19.0499878c0-14.2200317-15.6799927-25.7399902-35.0200195-25.7399902
				c-19.3299561,0-35.0099525,11.5199585-35.0099525,25.7399902c0,6.0199585,2.8099976,11.5599976,7.5199585,15.9400024
				l-24.3299561,6.4799805l18,25.1199951l32.6399574-15.4299927l12.6500244,6.5299683l-36.1900063,14.0500488l18.4000282,22.7399902
				l48.2599487-21.6500244v20.1699829h27.1000366V96.5045013H127.2594757z M85.3194733,124.4244843
				c-3.2099609,0-5.8099976-3.539978-5.8099976-7.9099731s2.6000366-7.9100342,5.8099976-7.9100342
				c3.2200317,0,5.8200073,3.5400391,5.8200073,7.9100342S88.539505,124.4244843,85.3194733,124.4244843z"/>
			<path class="st0" d="M199.4594879,87.1144867v103.3499756h-27.0999756V84.3444672
				c0-2.4799805-1.0100098-4.7399902-2.6400146-6.3599854c-1.6300049-1.6300049-3.8699951-2.6400146-6.3599854-2.6400146
				c-4.9700317,0-9,4.0300293-9,9v9.5300293h-27.1000366v-6.7600098c0-19.9400024,16.1600342-36.0999794,36.1000366-36.0999794
				c9.9699707,0,18.9899902,4.039978,25.5299683,10.5700073C195.4195099,68.1244965,199.4594879,77.144516,199.4594879,87.1144867z"
				/>
		</g>
	</g>
	<rect x="122.1498337" y="92.6355743" class="st19" width="35.7362633" height="5.4065933"/>
</g>
</svg>
