<?xml version="1.0" encoding="utf-8"?>
<!-- Generator: Adobe Illustrator 26.0.1, SVG Export Plug-In . SVG Version: 6.00 Build 0)  -->
<svg version="1.1" id="Layer_1" xmlns="http://www.w3.org/2000/svg" xmlns:xlink="http://www.w3.org/1999/xlink" x="0px" y="0px"
	 viewBox="0 0 256.9590149 256.9590149" style="enable-background:new 0 0 256.9590149 256.9590149;" xml:space="preserve">
<style type="text/css">
	.st0{fill:#FFFFFF;}
	.st1{fill:#003244;}
	.st2{fill:#E96A29;}
	.st3{fill:#00A44F;}
	.st4{fill:#28AAE1;}
	.st5{clip-path:url(#SVGID_00000149361568248451560420000018401403059514536107_);}
	.st6{fill:#009567;}
	.st7{fill:#C53240;}
	.st8{fill:#CA542E;}
	.st9{fill:#1389CA;}
	.st10{fill:#0095C1;}
	.st11{fill:#CA4C43;}
	.st12{clip-path:url(#SVGID_00000147902062348316523250000016404505444400326051_);}
	.st13{fill:#139869;}
	.st14{fill:#C73141;}
	.st15{fill:#CD5530;}
	.st16{fill:#218ACB;}
	.st17{fill:#1E96C2;}
	.st18{fill:#CD4C44;}
	.st19{fill:url(#SVGID_00000000922887289263946740000002533317253417417613_);}
</style>
<linearGradient id="SVGID_00000175287543206101167120000001483934856000412818_" gradientUnits="userSpaceOnUse" x1="128.4795074" y1="0" x2="128.4795074" y2="256.9590149">
	<stop  offset="0" style="stop-color:#E33187"/>
	<stop  offset="1" style="stop-color:#EB6A29"/>
</linearGradient>
<circle style="fill:url(#SVGID_00000175287543206101167120000001483934856000412818_);" cx="128.4795074" cy="128.4795074" r="128.4795074"/>
<path class="st0" d="M63.2412453,167.1230164l-13.7907906-19.2265167l26.2128448-7.1796722
	c-0.3847809-0.3847809-11.6505814-6.6006012-11.2581406-18.6436081c0-13.9803085,15.9195175-20.9685516,29.903656-21.164772
	c15.5270844-0.3847809,33.0067825,7.9626312,32.6200867,23.107811
	c-0.3924332,13.5936203-13.4002686,18.8350296-13.4002686,18.8350296l27.3748398,13.7850494v-51.2588959h24.6641541v88.7337189
	h-24.6641541v-21.5514679l-50.0883026,23.102066l-14.7575226-17.8606415l38.6368103-15.1461334l-19.6122589-10.2914124
	L63.2412453,167.1230164L63.2412453,167.1230164z M95.4727249,136.0535278c0,0,9.9047165-2.9097748,10.0961456-10.872406
	c0-5.4376373-2.9116898-9.5170593-10.0961456-9.5170593c-6.2138977,0-9.1255875,5.2490768-9.1255875,10.4904938
	C86.3471375,131.1997528,94.308815,136.0535278,95.4727249,136.0535278L95.4727249,136.0535278z M162.8511963,97.8053284h-23.885025
	c0-1.5544281-6.018631-36.5080795,30.6808777-36.5080795c20.9675903,0,37.8615112,21.3600311,37.8615112,44.0801926v88.7337189
	h-24.46698v-88.7337189c0-11.0695801-1.1639099-27.3748398-13.007843-27.3748398
	C157.9964752,78.0026016,162.8511963,97.8053284,162.8511963,97.8053284L162.8511963,97.8053284z"/>
</svg>
