<?xml version="1.0" encoding="utf-8"?>
<!-- Generator: Adobe Illustrator 26.0.1, SVG Export Plug-In . SVG Version: 6.00 Build 0)  -->
<svg version="1.1" id="Layer_1" xmlns="http://www.w3.org/2000/svg" xmlns:xlink="http://www.w3.org/1999/xlink" x="0px" y="0px"
	 viewBox="0 0 16 15.9983997" style="enable-background:new 0 0 16 15.9983997;" xml:space="preserve">
<style type="text/css">
	.st0{fill:#FFFFFF;}
	.st1{fill:#003244;}
	.st2{fill:#E96A29;}
	.st3{fill:#00A44F;}
	.st4{fill:#28AAE1;}
	.st5{clip-path:url(#SVGID_00000042705640861602020590000014626237554831041947_);}
	.st6{fill:#009567;}
	.st7{fill:#C53240;}
	.st8{fill:#CA542E;}
	.st9{fill:#1389CA;}
	.st10{fill:#0095C1;}
	.st11{fill:#CA4C43;}
	.st12{clip-path:url(#SVGID_00000051378077078053127670000018004809562694610590_);}
	.st13{fill:#139869;}
	.st14{fill:#C73141;}
	.st15{fill:#CD5530;}
	.st16{fill:#218ACB;}
	.st17{fill:#1E96C2;}
	.st18{fill:#CD4C44;}
	.st19{fill:#184890;}
	.st20{fill-rule:evenodd;clip-rule:evenodd;fill:#184890;}
	.st21{clip-path:url(#SVGID_00000163043343976255854960000013039637531381290126_);}
	.st22{fill:#144992;stroke:#144992;stroke-width:6;stroke-miterlimit:10;}
	.st23{fill:none;stroke:#A7C5EA;stroke-width:0.75;stroke-miterlimit:10;}
</style>
<path class="st19" d="M14.2790813,16H1.7209187C0.7704815,16,0,15.2295189,0,14.2790813V1.7209187
	C0,0.7704815,0.7704815,0,1.7209187,0h12.5581627C15.2295189,0,16,0.7704815,16,1.7209187v12.5581627
	C16,15.2295189,15.2295189,16,14.2790813,16z"/>
<g>
	<g>
		<g>
			<path class="st0" d="M8.8686743,5.9866567V9.914237L7.402081,9.1350079L7.3875718,9.134201
				C7.954874,8.7546568,8.3110466,8.2075043,8.3110466,7.5991092c0-1.1458826-1.2635298-2.0741873-2.8219934-2.0741873
				c-1.5576522,0-2.8211818,0.9283047-2.8211818,2.0741873c0,0.4851022,0.2264359,0.9315314,0.6059754,1.2844815
				l-1.9605634,0.522172l1.4504812,2.0242271l2.6302021-1.2433844l1.0193677,0.5261993l-2.9162729,1.132185l1.4827158,1.8324404
				l3.8888969-1.7446079v1.6253433h2.1837835V5.9866567H8.8686743z M5.4890532,8.2365131
				c-0.258666,0-0.468183-0.2852597-0.468183-0.637404s0.209517-0.6374087,0.468183-0.6374087
				c0.2594776,0,0.4689894,0.2852645,0.4689894,0.6374087S5.7485309,8.2365131,5.4890532,8.2365131z"/>
			<path class="st0" d="M14.686717,5.2299881v8.3281775h-2.1837788V5.0067735c0-0.1998425-0.0813885-0.3819594-0.212738-0.5125022
				c-0.1313496-0.1313496-0.3118534-0.2127385-0.5125027-0.2127385c-0.4004965,0-0.7252398,0.324749-0.7252398,0.7252407V5.774725
				H8.8686743V5.2299881c0-1.606811,1.3022127-2.9090188,2.9090233-2.9090188c0.8034039,0,1.5302572,0.3255508,2.0572634,0.8517554
				C14.361166,3.6997311,14.686717,4.4265852,14.686717,5.2299881z"/>
		</g>
	</g>
	<rect x="8.4569283" y="5.6748905" class="st19" width="2.87971" height="0.4356757"/>
</g>
</svg>
